<!-- Generated by IcoMoon.io -->
<svg version="1.1" xmlns="http://www.w3.org/2000/svg" width="512" height="512" viewBox="0 0 512 512">
<title>blocked</title>
<path d="M437.008 437.008c-99.968 99.984-262.064 99.984-362.032 0-99.984-99.968-99.984-262.064 0-362.032 99.968-99.984 262.064-99.984 362.032 0 99.984 99.984 99.984 262.064 0 362.032zM120.24 391.76c67.248 67.248 171.888 73.984 246.864 20.592l-267.456-267.456c-53.392 74.976-46.656 179.6 20.592 246.864zM391.76 120.24c-67.248-67.248-171.888-73.984-246.848-20.592l267.456 267.44c53.376-74.96 46.64-179.6-20.608-246.848z"></path>
</svg>
