<?xml version="1.0" encoding="utf-8"?>
<!-- Generated by IcoMoon.io -->
<!DOCTYPE svg PUBLIC "-//W3C//DTD SVG 1.1//EN" "http://www.w3.org/Graphics/SVG/1.1/DTD/svg11.dtd">
<svg version="1.1" xmlns="http://www.w3.org/2000/svg" xmlns:xlink="http://www.w3.org/1999/xlink" width="512" height="512" viewBox="0 0 512 512">
<path fill="#000" d="M405.334 85.334q9.166 0 15.25 6.084t6.084 15.25q0 9-6.166 15.166l-134.334 134.166 134.333 134.167q6.166 6.166 6.166 15.166 0 9.166-6.084 15.25t-15.25 6.084q-9 0-15.166-6.166l-134.166-134.334-134.167 134.333q-6.166 6.166-15.166 6.166-9.166 0-15.25-6.084t-6.084-15.25q0-9 6.166-15.166l134.333-134.167-134.333-134.167q-6.166-6.166-6.166-15.166 0-9.166 6.084-15.25t15.25-6.084q9 0 15.166 6.166l134.167 134.334 134.167-134.333q6.166-6.166 15.166-6.166z"></path>
</svg>
