<?xml version="1.0" encoding="utf-8"?>
<!-- Generator: Adobe Illustrator 22.1.0, SVG Export Plug-In . SVG Version: 6.00 Build 0)  -->
<svg version="1.1" id="Layer_1" xmlns="http://www.w3.org/2000/svg" xmlns:xlink="http://www.w3.org/1999/xlink" x="0px" y="0px"
	 viewBox="0 0 512 512" style="enable-background:new 0 0 512 512;" xml:space="preserve">
<path d="M223.5,0c-35.2,0-64,28.8-64,64h-64c-35.2,0-64,28.8-64,64h448c0-35.2-28.8-64-64-64h-64c0-35.2-28.8-64-64-64H223.5z
	 M95.5,192v307.8c0,7,5.1,12.2,12.2,12.2H404c7,0,12.2-5.1,12.2-12.2V192h-64v224c0,17.9-14.1,32-32,32s-32-14.1-32-32V192h-64v224
	c0,17.9-14.1,32-32,32s-32-14.1-32-32V192h-64H95.5z"/>
</svg>
