<?xml version="1.0" encoding="utf-8"?>
<!-- Generator: Adobe Illustrator 22.1.0, SVG Export Plug-In . SVG Version: 6.00 Build 0)  -->
<svg version="1.1" id="Layer_1" xmlns="http://www.w3.org/2000/svg" xmlns:xlink="http://www.w3.org/1999/xlink" x="0px" y="0px"
	 viewBox="0 0 512 512" style="enable-background:new 0 0 512 512;" xml:space="preserve">
<path d="M288,0c-77.4,0-145.3,55-160,128C57.6,128,0,185.6,0,256c0,23.7,7,45.4,17.9,64H192v-32c0-53.1,42.9-96,96-96s96,42.9,96,96
	v32h122.2c3.8-10.2,5.8-20.5,5.8-32c0-41.6-26.9-82.6-64-96v-32C448,71.7,376.3,0,288,0z M277.8,256c-13.6,4.6-22.5,17.7-21.8,32v96
	h-96l128,128l128-128h-96v-96c0.3-17.7-13.8-32.2-31.5-32.5c-2.1,0-4.2,0.1-6.3,0.5c-1.3-0.1-2.6-0.1-3.8,0H277.8z"/>
</svg>
