<?xml version="1.0" encoding="utf-8"?>
<!-- Generator: Adobe Illustrator 22.1.0, SVG Export Plug-In . SVG Version: 6.00 Build 0)  -->
<svg version="1.1" id="Layer_1" xmlns="http://www.w3.org/2000/svg" xmlns:xlink="http://www.w3.org/1999/xlink" x="0px" y="0px"
	 viewBox="0 0 512 512" style="enable-background:new 0 0 512 512;" xml:space="preserve">
<path d="M256,0.1l-21.2,21.2c-6.9,6.9-165.7,167.6-165.7,304c0,102.8,84.1,186.9,186.9,186.9S442.9,428,442.9,325.2
	c0-135.8-158.8-297.1-165.7-304C277.2,21.3,256,0.1,256,0.1z M162.6,294.1c17.4,0,31.1,13.7,31.1,31.1c0,34.3,28,62.3,62.3,62.3
	c17.4,0,31.1,13.7,31.1,31.1s-13.7,31.1-31.1,31.1c-68.5,0-124.6-56.1-124.6-124.6C131.4,307.8,145.1,294.1,162.6,294.1z"/>
</svg>
