<?xml version="1.0" encoding="utf-8"?>
<!-- Generator: Adobe Illustrator 22.1.0, SVG Export Plug-In . SVG Version: 6.00 Build 0)  -->
<svg version="1.1" id="Layer_1" xmlns="http://www.w3.org/2000/svg" xmlns:xlink="http://www.w3.org/1999/xlink" x="0px" y="0px"
	 viewBox="0 0 512 512" style="enable-background:new 0 0 512 512;" xml:space="preserve">
<g>
	<path d="M256,0C114.6,0,0,114.6,0,256s114.6,256,256,256s256-114.6,256-256S397.4,0,256,0z M256,64c21.1,0,41,5.8,60.2,12.2
		c-13.4,12.8-28.8,24.3-26.2,35.8s44.2,8.3,44.2,32c0,17.3-26.9,22.4-8.3,42.2c22.4,22.4-41,62.7-42.2,92.2
		c-1.9,53.1,53.8,62.1,97.9,62.1c26.9,0,33.9,12.8,32,28.2c-34.6,49.3-93.4,80-158.1,80c-24.3,0-46.7-5.8-67.8-14.1
		c14.1-28.2-17.9-83.8-48-101.8c-14.7-14.7-46.1-9-64-16C69.8,299.5,64,282.2,63.4,263c1.9-3.2,5.1-5.8,10.2-5.8
		c12.2,0,28.8,24.3,37.8,21.8c11.5-2.6-47.4-83.8-19.8-99.8c12.8-7.7,38.4,25,30.1-10.2c-7.7-32.6,23-17.9,42.2-26.2
		c16.6-7,28.8-26.2,8.3-37.8c-3.8-1.9-8.3-6.4-14.1-12.2c28.8-17.3,62.1-28.2,97.9-28.2V64z M403.8,133.8
		c11.5,14.1,20.5,29.4,28.2,46.1c0,0.6,0,1.3,0,1.9c-2.6,4.5-7,7-14.1,14.1c-17.9,17.9-20.5-13.4-28.2-19.8
		c-8.3-7.7-38.4,1.3-42.2-8.3C343,156.2,379.5,140.8,403.8,133.8z"/>
</g>
</svg>
