<?xml version="1.0" encoding="utf-8"?>
<!-- Generator: Adobe Illustrator 16.0.0, SVG Export Plug-In . SVG Version: 6.00 Build 0)  -->
<!DOCTYPE svg PUBLIC "-//W3C//DTD SVG 1.1//EN" "http://www.w3.org/Graphics/SVG/1.1/DTD/svg11.dtd">
<svg version="1.1" id="Layer_1" xmlns="http://www.w3.org/2000/svg" xmlns:xlink="http://www.w3.org/1999/xlink" x="0px" y="0px"
	 width="512px" height="512px" viewBox="-181 -191.713 512 512" enable-background="new -181 -191.713 512 512"
	 xml:space="preserve">
<path d="M205.856,105.18v81.784c0,40.635-32.973,73.607-73.607,73.607H-80.394c-40.637,0-73.606-32.973-73.606-73.607V-25.678
	c0-40.637,32.969-73.607,73.606-73.607h179.93c4.601,0,8.179,3.578,8.179,8.181v16.356c0,4.601-3.578,8.181-8.179,8.181h-179.93
	c-22.49,0-40.893,18.402-40.893,40.893v212.641c0,22.491,18.403,40.895,40.893,40.895h212.643c22.491,0,40.892-18.403,40.892-40.895
	V105.18c0-4.601,3.578-8.179,8.182-8.179h16.358C202.278,97.001,205.856,100.579,205.856,105.18L205.856,105.18z M303.998-115.645
	V15.211c0,8.947-7.41,16.357-16.358,16.357c-4.341,0-8.433-1.789-11.5-4.854l-44.98-44.981L64.52,148.37
	c-1.533,1.533-3.834,2.556-5.877,2.556s-4.345-1.022-5.878-2.556l-29.135-29.134c-1.533-1.533-2.555-3.835-2.555-5.881
	c0-2.039,1.022-4.341,2.555-5.873L190.268-59.158l-44.982-44.981c-3.065-3.065-4.854-7.156-4.854-11.502
	c0-8.947,7.413-16.356,16.358-16.356h130.857c8.945,0,16.354,7.41,16.354,16.356L303.998-115.645z"/>
</svg>
