<svg id="Layer_1" data-name="Layer 1" xmlns="http://www.w3.org/2000/svg" viewBox="0 0 512 512"><title>text</title><path d="M49.52,92.64v-40A11.45,11.45,0,0,1,61,41.22h148.5a11.45,11.45,0,0,1,11.45,11.45v40a17.14,17.14,0,0,1-17.14,17.14h0a17.14,17.14,0,0,1-17.14-17.14V75.5H152.37v120a17.14,17.14,0,0,1-34.28,0V75.5H83.8V92.64a17.14,17.14,0,1,1-34.28,0ZM461.26,258.89H51a10,10,0,0,0,0,20h410.3a10,10,0,0,0,0-20Zm0,60H51a10,10,0,0,0,0,20h410.3a10,10,0,0,0,0-20Zm0,61H51a10,10,0,0,0,0,20h410.3a10,10,0,0,0,0-20Zm-178-221.34h178a10,10,0,0,0,0-20h-178a10,10,0,0,0,0,20Zm178,40h-178a10,10,0,0,0,0,20h178a10,10,0,0,0,0-20Zm0,242.34H51a10,10,0,0,0,0,20h410.3a10,10,0,0,0,0-20Z"/></svg>