<?xml version="1.0" encoding="utf-8"?>
<!-- Generator: Adobe Illustrator 22.1.0, SVG Export Plug-In . SVG Version: 6.00 Build 0)  -->
<svg version="1.1" id="Layer_1" xmlns="http://www.w3.org/2000/svg" xmlns:xlink="http://www.w3.org/1999/xlink" x="0px" y="0px"
	 viewBox="0 0 512 512" style="enable-background:new 0 0 512 512;" xml:space="preserve">
<path d="M211.2,1.2c-16.8,5.4-26,23.3-20.6,40.1c1.6,5.1,4.6,9.8,8.5,13.5L239.3,95L10.3,328.3L0.1,338.5V512h171.5l10.2-10.2
	l233.4-233.4l40.2,42.1c11.2,13.6,31.3,15.5,44.9,4.3c13.6-11.2,15.5-31.3,4.3-44.9c-1-1.2-2.1-2.4-3.3-3.4l-59.9-59.9l42.1-42.1
	c37.6-37,37.6-98.2,0-135.8c-36.3-36.3-99.5-36.3-135.8,0l-42.1,42.1l-59.9-59.9c-7.5-8.5-18.9-12.4-30-10.2c-1.3-0.1-2.6-0.1-3.8,0
	L211.2,1.2z M285.2,140.9l83.5,83.5L167.2,425.9l-81.6-83.5C85.6,342.4,285.2,140.9,285.2,140.9z"/>
</svg>
