<svg id="Layer_1" data-name="Layer 1" xmlns="http://www.w3.org/2000/svg" viewBox="0 0 512 512"><title>numbers</title><path d="M157.14,346.15A16.86,16.86,0,0,1,140.3,363H34.93a16.84,16.84,0,1,1,0-33.67H70.35V200.78l-13,13a17,17,0,1,1-24-24l34.44-34.44a21.73,21.73,0,0,1,37.09,15.36V329.31H140.3A16.86,16.86,0,0,1,157.14,346.15ZM316.37,239.67c4.07-8.15,6.14-17.92,6.14-29,0-17.59-6.39-32.91-19-45.51s-27.91-19-45.51-19-32.91,6.39-45.51,19-19,27.91-19,45.51c0,15.8,4.86,29.58,14.46,40.94a17.23,17.23,0,0,0,13,6.12h.15a17.26,17.26,0,0,0,13-5.9h0a17.26,17.26,0,0,0,.35-22.31A28.7,28.7,0,0,1,228,210.64a30.08,30.08,0,0,1,8.81-21.77,29.23,29.23,0,0,1,42.3,0A30.1,30.1,0,0,1,288,210.64c0,10.35-5.33,21.54-15.9,33.32l-73.21,83.31A21.51,21.51,0,0,0,215,363h90.64a16.84,16.84,0,0,0,0-33.67H242.23l54.86-62.46C306.14,256.41,312.44,247.51,316.37,239.67Zm170,31.76a64.4,64.4,0,0,0-13.81-17.52c12.83-11.75,19.33-26.94,19.33-45.28a62.37,62.37,0,0,0-62.49-62.49c-17.23,0-32.07,6.15-44.09,18.29a60.64,60.64,0,0,0-16.5,29.51,17.28,17.28,0,0,0,33.66,7.88,28.43,28.43,0,0,1,7.4-13.55,25.63,25.63,0,0,1,19.54-8.44,26.09,26.09,0,0,1,19.71,8.48,28.17,28.17,0,0,1,8.24,20.34,27.68,27.68,0,0,1-8.21,20.16,26.32,26.32,0,0,1-12.7,7.54A18.05,18.05,0,0,0,422.91,254a18.32,18.32,0,0,0,14,17.74A26.11,26.11,0,0,1,450.74,280c5.89,6.87,8.63,13.64,8.63,21.32a30.08,30.08,0,0,1-8.81,21.77,29.23,29.23,0,0,1-42.31,0,30.07,30.07,0,0,1-8.06-14.64,17.26,17.26,0,1,0-33.75,7.3,62.78,62.78,0,0,0,17.45,31.08c12.59,12.6,27.91,19,45.51,19s32.91-6.39,45.51-19,19-27.91,19-45.51A62.33,62.33,0,0,0,486.37,271.43Z"/></svg>