<svg id="Layer_1" data-name="Layer 1" xmlns="http://www.w3.org/2000/svg" viewBox="0 0 512 512"><title>modular</title><path d="M409.356,336.464h-21a10,10,0,0,0,0,20h21a10,10,0,0,0,0-20Zm-57.14,0h-21a10,10,0,1,0,0,20h21a10,10,0,0,0,0-20Zm-57.15,0h-21a10,10,0,0,0,0,20h21a10,10,0,1,0,0-20Zm-57.14,0h-21a10,10,0,0,0,0,20h21a10,10,0,0,0,0-20Zm-57.14,0h-21a10,10,0,0,0,0,20h21a10,10,0,1,0,0-20Zm-57.14,0h-21a10,10,0,0,0,0,20h21a10,10,0,0,0,0-20Zm285.71-124.6h-21a10,10,0,0,0,0,20h21a10,10,0,0,0,0-20Zm-57.14,0h-21a10,10,0,0,0,0,20h21a10,10,0,0,0,0-20Zm-57.15,0h-21a10,10,0,0,0,0,20h21a10,10,0,0,0,0-20Zm-57.14,0h-21a10,10,0,0,0,0,20h21a10,10,0,0,0,0-20Zm-57.14,0h-21a10,10,0,0,0,0,20h21a10,10,0,0,0,0-20Zm-57.14,0h-21a10,10,0,0,0,0,20h21a10,10,0,1,0,0-20Zm-74.67,51.8a10,10,0,0,0-10,10v21a10,10,0,0,0,20,0v-21A10,10,0,0,0,48.976,263.664Zm414.05,0a10,10,0,0,0-10,10v21a10,10,0,0,0,20,0v-21A10,10,0,0,0,463.026,263.664Zm0,55.27a10,10,0,0,0-10,10,7.541,7.541,0,0,1-7.53,7.53,10,10,0,0,0,0,20,27.561,27.561,0,0,0,27.53-27.53A10,10,0,0,0,463.026,318.934ZM445.5,211.864a10,10,0,0,0,0,20,7.541,7.541,0,0,1,7.53,7.53,10,10,0,0,0,20,0A27.561,27.561,0,0,0,445.5,211.864Zm-378.99,124.6a7.541,7.541,0,0,1-7.53-7.53,10,10,0,0,0-20,0,27.561,27.561,0,0,0,27.53,27.53,10,10,0,1,0,0-20Zm0-124.6a27.561,27.561,0,0,0-27.53,27.53,10,10,0,0,0,20,0,7.541,7.541,0,0,1,7.53-7.53,10,10,0,0,0,0-20ZM445.5,39.784H66.506a27.561,27.561,0,0,0-27.53,27.53v88.61a27.561,27.561,0,0,0,27.53,27.53H445.5a27.561,27.561,0,0,0,27.53-27.53V67.314A27.561,27.561,0,0,0,445.5,39.784Zm7.53,116.14a7.541,7.541,0,0,1-7.53,7.53H66.506a7.541,7.541,0,0,1-7.53-7.53V67.314a7.541,7.541,0,0,1,7.53-7.53H445.5a7.541,7.541,0,0,1,7.53,7.53Z"/><path d="M119.986,426.544a10,10,0,0,1-10,10H89.316v20.67a10,10,0,0,1-20,0v-20.67H48.656a10,10,0,0,1,0-20h20.66v-20.67a10,10,0,0,1,20,0v20.67h20.67A10,10,0,0,1,119.986,426.544Z"/></svg>