<?xml version="1.0" encoding="utf-8"?>
<!-- Generator: Adobe Illustrator 22.0.0, SVG Export Plug-In . SVG Version: 6.00 Build 0)  -->
<svg version="1.1" id="Capa_1" xmlns="http://www.w3.org/2000/svg" xmlns:xlink="http://www.w3.org/1999/xlink" x="0px" y="0px"
	 viewBox="0 0 512 512" style="enable-background:new 0 0 512 512;" xml:space="preserve">
<g>
	<path d="M433.2,74.4C422.8,65,409,59.1,393.8,59.1c-10.9,0-19.7,8.8-19.7,19.7s8.8,19.7,19.7,19.7c10.9,0,19.7,8.8,19.7,19.7v78.8
		c0,23.6,10.7,44.6,27.2,59.1c-16.5,14.5-27.2,35.4-27.2,59.1v78.8c0,10.9-8.8,19.7-19.7,19.7c-10.9,0-19.7,8.8-19.7,19.7
		c0,10.9,8.8,19.7,19.7,19.7c32.6,0,59.1-26.5,59.1-59.1v-78.8c0-21.7,17.7-39.4,39.4-39.4c10.9,0,19.7-8.8,19.7-19.7
		s-8.8-19.7-19.7-19.7c-21.7,0-39.4-17.7-39.4-39.4v-78.8c0-15.2-5.9-28.9-15.4-39.4L433.2,74.4z"/>
	<path d="M98.5,196.9v-78.8c0-10.9,8.8-19.7,19.7-19.7c10.9,0,19.7-8.8,19.7-19.7s-8.8-19.7-19.7-19.7c-32.6,0-59.1,26.5-59.1,59.1
		v78.8c0,21.7-17.7,39.4-39.4,39.4C8.8,236.3,0,245.1,0,256s8.8,19.7,19.7,19.7c21.7,0,39.4,17.7,39.4,39.4v78.8
		c0,32.6,26.5,59.1,59.1,59.1c10.9,0,19.7-8.8,19.7-19.7s-8.8-19.7-19.7-19.7c-10.9,0-19.7-8.8-19.7-19.7v-78.8
		c0-23.6-10.7-44.6-27.2-59.1C87.8,241.5,98.5,220.6,98.5,196.9z"/>
	<circle cx="256" cy="187.1" r="29.5"/>
	<path d="M256,295.4c-10.9,0-19.7,8.8-19.7,19.7v59.1c0,10.9,8.8,19.7,19.7,19.7s19.7-8.8,19.7-19.7v-59.1
		C275.7,304.2,266.9,295.4,256,295.4z"/>
</g>
</svg>
