<?xml version="1.0" encoding="utf-8"?>
<!-- Generator: Adobe Illustrator 22.1.0, SVG Export Plug-In . SVG Version: 6.00 Build 0)  -->
<svg version="1.1" id="Layer_1" xmlns="http://www.w3.org/2000/svg" xmlns:xlink="http://www.w3.org/1999/xlink" x="0px" y="0px"
	 viewBox="0 0 512 512" style="enable-background:new 0 0 512 512;" xml:space="preserve">
<path d="M117.3,0.1C99.6,3,87.6,19.6,90.4,37.2s19.4,29.7,37.1,26.9h32v128h-64c-35.2,0-64,28.8-64,64h192v192l28.2,64l35.8-64v-192
	h192c0-35.2-28.8-64-64-64h-64v-128h32c17.7,0,32-14.3,32-32s-14.3-32-32-32H127.5c-1.9-0.2-3.8-0.2-5.8,0c-1.3-0.1-2.6-0.1-3.8,0
	H117.3z"/>
</svg>
