<svg id="Layer_1" data-name="Layer 1" xmlns="http://www.w3.org/2000/svg" viewBox="0 0 512 512"><title>date</title><path d="M138.59,212.79a20.16,20.16,0,1,1-20.16-20.16A20.16,20.16,0,0,1,138.59,212.79Zm117.66,20.16a20.16,20.16,0,1,0-20.16-20.16A20.16,20.16,0,0,0,256.25,232.94Zm137.82-40.31a20.16,20.16,0,1,0,20.16,20.16A20.16,20.16,0,0,0,394.07,192.63ZM118.43,284.34a20.16,20.16,0,1,0,20.16,20.16A20.16,20.16,0,0,0,118.43,284.34Zm137.82-22.17a42.33,42.33,0,1,0,42.33,42.33A42.33,42.33,0,0,0,256.25,262.17Zm137.82,22.17a20.16,20.16,0,1,0,20.16,20.16A20.16,20.16,0,0,0,394.07,284.34ZM118.43,376.06a20.16,20.16,0,1,0,20.16,20.16A20.16,20.16,0,0,0,118.43,376.06Zm137.82,0a20.16,20.16,0,1,0,20.16,20.16A20.16,20.16,0,0,0,256.25,376.06Zm137.82,0a20.16,20.16,0,1,0,20.16,20.16A20.16,20.16,0,0,0,394.07,376.06ZM489,81.45V448.5a38.6,38.6,0,0,1-38.56,38.56H63.56A38.6,38.6,0,0,1,25,448.5V81.45A38.6,38.6,0,0,1,63.56,42.89h62V31.35a9.42,9.42,0,0,1,18.83,0V42.89H367.56V31.35a9.42,9.42,0,0,1,18.83,0V42.89h64A38.6,38.6,0,0,1,489,81.45Zm-444,0v35.28H469V81.45a18.58,18.58,0,0,0-18.56-18.56h-64v24a9.42,9.42,0,0,1-18.83,0v-24H144.44v24a9.42,9.42,0,0,1-18.83,0v-24h-62A18.58,18.58,0,0,0,45,81.45ZM469,448.5V136.73H45V448.5a18.58,18.58,0,0,0,18.56,18.56H450.44A18.58,18.58,0,0,0,469,448.5Z"/></svg>