<svg id="Layer_1" data-name="Layer 1" xmlns="http://www.w3.org/2000/svg" viewBox="0 0 512 512"><title>seo</title><path d="M145.52,183.39,72.9,256l72.61,72.61a16.93,16.93,0,0,1-23.94,23.94L31.41,262.39a9,9,0,0,1,0-12.78l90.17-90.17a17,17,0,0,1,23.75-.19,16.93,16.93,0,0,1,.19,24.13ZM327,116.88h0A17,17,0,0,0,304,124.25l-126.54,248a17,17,0,1,0,30.37,15.5l126.53-248A17.1,17.1,0,0,0,327,116.88ZM480.59,249.61l-90.17-90.17a17,17,0,0,0-23.75-.19,16.93,16.93,0,0,0-.19,24.13L439.1,256l-72.61,72.61a16.93,16.93,0,0,0,23.94,23.94l90.17-90.16a9,9,0,0,0,0-12.78Z"/></svg>