<!-- Generated by IcoMoon.io -->
<svg version="1.1" xmlns="http://www.w3.org/2000/svg" width="544" height="512" viewBox="0 0 544 512">
<path d="M320 32c123.712 0 224 100.288 224 224s-100.288 224-224 224v-48c47.012 0 91.209-18.307 124.451-51.549s51.549-77.439 51.549-124.451c0-47.011-18.307-91.209-51.549-124.451s-77.439-51.549-124.451-51.549c-47.011 0-91.209 18.307-124.451 51.549-25.57 25.569-42.291 57.623-48.653 92.451h93.104l-112 128-112-128h82.285c15.53-108.551 108.869-192 221.715-192zM416 224v64h-128v-160h64v96z"></path>
</svg>
