<?xml version="1.0" encoding="utf-8"?>
<!-- Generator: Adobe Illustrator 22.1.0, SVG Export Plug-In . SVG Version: 6.00 Build 0)  -->
<svg version="1.1" id="Layer_1" xmlns="http://www.w3.org/2000/svg" xmlns:xlink="http://www.w3.org/1999/xlink" x="0px" y="0px"
	 viewBox="0 0 512 512" style="enable-background:new 0 0 512 512;" xml:space="preserve">
<path d="M224.1,0l-31.9,76c-6.4,1.9-12.1,5.1-17.9,8.3l-76-31.9l-46,46l31.9,76c-3.2,6.4-5.7,11.5-8.3,17.9L0,224.1v63.8l76,31.9
	c2.6,6.4,5.1,11.5,8.3,17.9l-31.9,76l46,46l76-31.9c5.7,2.6,11.5,5.7,17.9,8.3l31.9,76h63.8l31.9-76c5.7-2.6,12.1-5.1,17.9-8.3
	l76,31.9l46-46l-31.9-76c2.6-5.7,5.7-12.1,8.3-17.9l76-31.9v-63.8l-76-31.9c-1.9-5.7-5.1-12.1-8.3-17.9l31.9-76l-46-46l-76,31.9
	c-5.7-2.6-12.1-5.7-17.9-8.3L287.9,0C287.9,0,224.1,0,224.1,0z M256,159.6c53,0,95.8,42.8,95.8,95.8S309,351.1,256,351.1
	s-95.8-42.8-95.8-95.8S203,159.6,256,159.6z"/>
</svg>
