<?xml version="1.0" encoding="utf-8"?>
<!-- Generator: Adobe Illustrator 22.1.0, SVG Export Plug-In . SVG Version: 6.00 Build 0)  -->
<svg version="1.1" id="Layer_1" xmlns="http://www.w3.org/2000/svg" xmlns:xlink="http://www.w3.org/1999/xlink" x="0px" y="0px"
	 viewBox="0 0 512 512" style="enable-background:new 0 0 512 512;" xml:space="preserve">
<path d="M288,0c-77.4,0-145.3,55-160,128C57.6,128,0,185.6,0,256c0,23.7,7,45.4,17.9,64H160l128-128l128,128h90.2
	c3.8-10.2,5.8-20.5,5.8-32c0-41.6-26.9-82.6-64-96v-32C448,71.7,376.3,0,288,0z M288,288L128,448h128v32c0,17.7,14.3,32,32,32
	s32-14.3,32-32v-32h128L288,288z"/>
</svg>
