<?xml version="1.0" encoding="utf-8"?>
<!-- Generated by IcoMoon.io -->
<!DOCTYPE svg PUBLIC "-//W3C//DTD SVG 1.1//EN" "http://www.w3.org/Graphics/SVG/1.1/DTD/svg11.dtd">
<svg version="1.1" xmlns="http://www.w3.org/2000/svg" xmlns:xlink="http://www.w3.org/1999/xlink" width="512" height="512" viewBox="0 0 512 512">
<path d="M197.76 54.938c-26.010 19.353-32.999 49.997-31.719 66.304 1.638 19.942 5.683 45.901 5.683 45.901s-8.013 4.352-8.013 21.863c2.791 43.955 17.485 24.986 20.506 44.263 7.27 46.438 23.885 38.169 23.885 63.514 0 42.214-17.408 61.952-71.757 85.351-54.528 23.501-110.746 53.069-110.746 104.269v25.6h460.8v-25.6c0-51.2-56.243-80.768-110.797-104.243-54.349-23.399-71.706-43.111-71.706-85.351 0-25.344 16.563-17.075 23.859-63.513 3.046-19.277 17.715-0.307 20.557-44.263 0-17.511-8.038-21.863-8.038-21.863s4.045-25.959 5.658-45.901c1.664-20.915-10.189-65.561-58.88-79.257-8.525-8.704-14.285-22.553 11.93-36.455-57.344-2.688-70.681 27.315-101.222 49.383z"></path>
</svg>
