<?xml version="1.0" encoding="utf-8"?>
<!-- Generated by IcoMoon.io -->
<!DOCTYPE svg PUBLIC "-//W3C//DTD SVG 1.1//EN" "http://www.w3.org/Graphics/SVG/1.1/DTD/svg11.dtd">
<svg version="1.1" xmlns="http://www.w3.org/2000/svg" xmlns:xlink="http://www.w3.org/1999/xlink" width="512" height="512" viewBox="0 0 512 512">
<path d="M409.318 489.702c0-57.498-55.987-86.759-110.515-110.259-54.349-23.399-71.706-43.111-71.706-85.351 0-25.318 16.589-17.075 23.859-63.513 3.072-19.251 17.715-0.307 20.531-44.263 0-17.511-8.013-21.863-8.013-21.863s4.070-25.933 5.658-45.901c1.639-20.915-10.189-65.536-58.906-79.232-8.499-8.73-14.259-22.579 11.955-36.455-57.344-2.663-70.681 27.341-101.222 49.408-25.984 19.354-32.999 49.997-31.744 66.304 1.664 19.968 5.709 45.901 5.709 45.901s-8.038 4.352-8.038 21.863c2.816 43.981 17.511 25.011 20.557 44.263 7.27 46.438 23.885 38.195 23.885 63.514 0 42.24-5.427 56.576-59.802 79.974-54.553 23.475-71.526 61.107-71.245 115.61 0.077 16.307-0.281 22.298-0.281 22.298h409.6c0 0-0.281-5.99-0.281-22.298zM474.317 342.144c-29.056-11.699-41.088-25.651-41.088-52.889 0-16.409 10.701-11.059 15.411-41.037 1.971-12.391 11.443-0.205 13.261-28.544 0-11.29-5.171-14.106-5.171-14.106s2.637-16.793 3.661-29.671c1.28-16.051-9.319-57.523-58.061-57.523-48.717 0-59.341 41.472-58.087 57.523 1.075 12.851 3.687 29.671 3.687 29.671s-5.171 2.791-5.171 14.106c1.817 28.339 11.289 16.154 13.261 28.544 4.711 30.003 15.411 24.653 15.411 41.037 0 27.238-11.213 39.987-46.31 55.091-1.767 0.743-3.072 1.741-4.685 2.611 41.984 18.227 108.185 49.69 123.853 113.843h67.712c0 0 0-48.793 0-59.341 0-25.6-6.989-46.95-37.683-59.315z"></path>
</svg>
