<?xml version="1.0" encoding="utf-8"?>
<!-- Generator: Adobe Illustrator 22.1.0, SVG Export Plug-In . SVG Version: 6.00 Build 0)  -->
<svg version="1.1" id="Layer_1" xmlns="http://www.w3.org/2000/svg" xmlns:xlink="http://www.w3.org/1999/xlink" x="0px" y="0px"
	 viewBox="0 0 512 512" style="enable-background:new 0 0 512 512;" xml:space="preserve">
<path d="M192,0c-17.9,0-34.6,6.4-46.1,17.9S128,46.1,128,64s11.5,30.7,17.9,46.1c1.9,3.8,1.9,10.2,1.9,17.9H0v384h147.8
	c0-7.7-0.6-14.1-1.9-17.9c-6.4-15.4-17.9-28.2-17.9-46.1c0-17.9,6.4-34.6,17.9-46.1c11.5-11.5,28.2-17.9,46.1-17.9
	s34.6,6.4,46.1,17.9c11.5,11.5,17.9,28.2,17.9,46.1s-11.5,30.7-17.9,46.1c-1.9,3.8-1.9,10.2-1.9,17.9H384V364.2
	c7.7,0,14.1,0.6,17.9,1.9c15.4,6.4,28.2,17.9,46.1,17.9c17.9,0,34.6-6.4,46.1-17.9c11.5-11.5,17.9-28.2,17.9-46.1
	s-6.4-34.6-17.9-46.1C482.6,262.4,465.9,256,448,256c-17.9,0-30.7,11.5-46.1,17.9c-3.8,1.9-10.2,1.9-17.9,1.9V128H236.2
	c0-7.7,0.6-14.1,1.9-17.9C244.5,94.7,256,81.9,256,64s-6.4-34.6-17.9-46.1S209.9,0,192,0z"/>
</svg>
