<?xml version="1.0" encoding="UTF-8" standalone="no"?>
<!-- Created with Inkscape (http://www.inkscape.org/) -->

<svg
   xmlns:dc="http://purl.org/dc/elements/1.1/"
   xmlns:cc="http://creativecommons.org/ns#"
   xmlns:rdf="http://www.w3.org/1999/02/22-rdf-syntax-ns#"
   xmlns:svg="http://www.w3.org/2000/svg"
   xmlns="http://www.w3.org/2000/svg"
   xmlns:sodipodi="http://sodipodi.sourceforge.net/DTD/sodipodi-0.dtd"
   xmlns:inkscape="http://www.inkscape.org/namespaces/inkscape"
   width="173"
   height="173"
   viewBox="0 0 45.772916 45.772918"
   version="1.1"
   id="svg2597"
   inkscape:export-filename="/home/sirion1987/sftp.png"
   inkscape:export-xdpi="96"
   inkscape:export-ydpi="96"
   inkscape:version="0.92.3 (2405546, 2018-03-11)"
   sodipodi:docname="icon_ftp.svg">
  <defs
     id="defs2591" />
  <sodipodi:namedview
     id="base"
     pagecolor="#ffffff"
     bordercolor="#666666"
     borderopacity="1.0"
     inkscape:pageopacity="0.0"
     inkscape:pageshadow="2"
     inkscape:zoom="1.4"
     inkscape:cx="-1.7781886"
     inkscape:cy="-65.131519"
     inkscape:document-units="mm"
     inkscape:current-layer="layer1"
     showgrid="false"
     units="px"
     inkscape:window-width="1920"
     inkscape:window-height="1052"
     inkscape:window-x="0"
     inkscape:window-y="0"
     inkscape:window-maximized="1" />
  <metadata
     id="metadata2594">
    <rdf:RDF>
      <cc:Work
         rdf:about="">
        <dc:format>image/svg+xml</dc:format>
        <dc:type
           rdf:resource="http://purl.org/dc/dcmitype/StillImage" />
        <dc:title></dc:title>
      </cc:Work>
    </rdf:RDF>
  </metadata>
  <g
     inkscape:label="Livello 1"
     inkscape:groupmode="layer"
     id="layer1"
     transform="translate(0,-251.22707)">
    <g
       id="g3197"
       transform="translate(-0.90052983,-0.43582164)">
      <path
         inkscape:connector-curvature="0"
         id="path1699"
         d="m 32.599526,274.19258 c -0.47625,0 -0.941337,0.0485 -1.390613,0.14056 -0.449276,0.0921 -0.883047,0.22769 -1.296046,0.40256 -0.412996,0.17487 -0.805636,0.38881 -1.173054,0.63717 -0.367419,0.24836 -0.709621,0.53134 -1.02216,0.84388 -0.312539,0.31254 -0.595003,0.65474 -0.843359,1.02216 -0.248357,0.36742 -0.462299,0.76005 -0.637173,1.17305 -0.174871,0.413 -0.310988,0.84626 -0.403074,1.29553 -0.09209,0.44927 -0.14056,0.91436 -0.14056,1.39061 0,0.41011 0.03338,0.8138 0.102836,1.20407 0.06945,0.39026 0.17539,0.76729 0.32091,1.12447 0.185209,0.47625 0.370417,0.89969 0.661459,1.42886 0.324114,0.48948 0.700939,0.93079 1.121378,1.31774 0.420439,0.38696 0.884081,0.71945 1.381829,0.99064 0.497747,0.2712 1.029394,0.48101 1.585432,0.62322 0.55604,0.14221 1.136882,0.21704 1.732195,0.21704 0.463021,0 0.915035,-0.0455 1.352373,-0.13229 0.437337,-0.0868 0.859689,-0.21497 1.262972,-0.38034 0.403281,-0.16536 0.787392,-0.36794 1.14825,-0.60358 0.360857,-0.23565 0.698664,-0.50436 1.008724,-0.80202 0.310057,-0.29765 0.59247,-0.62425 0.843359,-0.97565 0.250888,-0.3514 0.470358,-0.7276 0.653706,-1.12448 0.183348,-0.39687 0.330782,-0.81442 0.438216,-1.2485 0.107437,-0.43408 0.174771,-0.8847 0.197922,-1.34772 v -0.34417 c 0,-0.47625 -0.05292,-0.9526 -0.132292,-1.42885 -0.07937,-0.38364 -0.193683,-0.75603 -0.338997,-1.11414 -0.145315,-0.35812 -0.321842,-0.70167 -0.526066,-1.02785 -0.204227,-0.32618 -0.43584,-0.6351 -0.691949,-0.92294 -0.256109,-0.28784 -0.53671,-0.5548 -0.837673,-0.79788 -0.300964,-0.24309 -0.622393,-0.4623 -0.961181,-0.65423 -0.338791,-0.19192 -0.694947,-0.35657 -1.064536,-0.49092 -0.369591,-0.13436 -0.752821,-0.23813 -1.146183,-0.30851 -0.393361,-0.0704 -0.796541,-0.10749 -1.206645,-0.10749 z"
         clip-path="none"
         style="opacity:0.66300001;fill:#ff2200;fill-opacity:1;stroke:none;stroke-width:0.12043688;stroke-linecap:butt;stroke-miterlimit:4;stroke-dasharray:none;stroke-opacity:1" />
      <path
         inkscape:connector-curvature="0"
         id="path1695"
         d="m 18.893968,261.2277 c -0.67138,0 -1.328137,0.0614 -1.963706,0.17777 -0.635566,0.11637 -1.250053,0.28773 -1.836062,0.50849 -0.58601,0.22077 -1.143858,0.49093 -1.666566,0.80409 -0.522705,0.31316 -1.010068,0.66942 -1.455724,1.06299 -0.445659,0.39356 -0.849199,0.82423 -1.204062,1.28622 -0.354862,0.46199 -0.661252,0.95539 -0.9115709,1.47381 -0.250323,0.51842 -0.444678,1.06185 -0.57671,1.62471 -0.132035,0.56286 -0.201538,1.14515 -0.201538,1.74046 0,0.18521 -2.07e-4,0.37042 0.05271,0.52917 l 0.105936,0.76739 -0.661458,0.34365 c -0.383646,0.21167 -0.735666,0.46643 -1.0511,0.75706 -0.315431,0.29063 -0.594484,0.61702 -0.830956,0.97255 -0.236471,0.35553 -0.430466,0.74032 -0.577225,1.1467 -0.146762,0.40639 -0.246187,0.83478 -0.292489,1.27796 -0.03638,0.3638 -0.03478,0.72187 0.0016,1.07125 0.03633,0.34939 0.107487,0.68988 0.209806,1.01751 0.10232,0.32763 0.2358,0.6425 0.397391,0.94103 0.161592,0.29853 0.351192,0.58074 0.565341,0.84284 0.214146,0.2621 0.453149,0.50411 0.713134,0.72244 0.259985,0.21833 0.541155,0.4131 0.840259,0.58032 0.299103,0.16723 0.616241,0.3067 0.947745,0.41548 0.331504,0.10878 0.6773759,0.18697 1.0345629,0.22996 0.271198,0.0331 0.544051,0.0411 0.816489,0.0258 0.272437,-0.0153 0.54436,-0.0541 0.813904,-0.11524 0.539088,-0.12237 1.068255,-0.33424 1.570963,-0.62528 l 0.661459,-0.37053 0.581877,0.47646 c 0.522552,0.42995 1.09988,0.81194 1.720823,1.14309 0.620945,0.33114 1.285505,0.61164 1.983343,0.83819 0.697839,0.22655 1.42906,0.39904 2.182294,0.51521 0.753237,0.11617 1.528487,0.1757 2.315623,0.1757 h 0.846976 c -0.145521,-0.44979 -0.244636,-0.86651 -0.307475,-1.27331 -0.06284,-0.4068 -0.0894,-0.80377 -0.0894,-1.21388 0,-0.61185 0.0631,-1.21041 0.183452,-1.78955 0.120353,-0.57914 0.297656,-1.13885 0.526065,-1.67277 0.22841,-0.53392 0.507826,-1.04205 0.831991,-1.51825 0.324167,-0.4762 0.693084,-0.92005 1.100709,-1.32602 0.407622,-0.40597 0.853953,-0.77385 1.332735,-1.09709 0.478782,-0.32324 0.990431,-0.60193 1.528072,-0.82992 0.537641,-0.228 1.101482,-0.4053 1.685685,-0.52555 0.584203,-0.12025 1.188662,-0.18345 1.807125,-0.18345 0.463021,0 0.919118,0.0352 1.365293,0.10335 0.446172,0.0682 0.882115,0.16919 1.305861,0.30127 0.423749,0.13209 0.835195,0.29502 1.230934,0.4868 0.395738,0.19177 0.775767,0.41217 1.137915,0.65939 0.362149,0.24722 0.706417,0.52115 1.029393,0.81958 0.32298,0.29844 0.625079,0.62147 0.903304,0.96687 0.278228,0.34541 0.532267,0.71308 0.760161,1.10123 0.227893,0.38814 0.429535,0.79705 0.601514,1.22369 0.330729,-0.52916 0.595313,-1.11156 0.777214,-1.7234 0.09095,-0.30593 0.161229,-0.61899 0.208772,-0.9369 0.04754,-0.31791 0.07235,-0.64068 0.07235,-0.9648 0,-0.42994 -0.04,-0.85116 -0.11679,-1.25987 -0.07679,-0.40871 -0.190685,-0.8047 -0.337447,-1.18442 -0.146762,-0.37972 -0.326491,-0.74327 -0.5364,-1.08624 -0.20991,-0.34298 -0.449999,-0.66528 -0.716235,-0.96377 -0.266237,-0.29848 -0.558623,-0.57283 -0.874366,-0.81907 -0.315744,-0.24624 -0.654431,-0.46436 -1.01286,-0.6506 -0.358426,-0.18625 -0.736904,-0.34092 -1.131197,-0.45941 -0.39429,-0.11849 -0.804497,-0.20092 -1.22783,-0.24391 l -0.820106,-0.0532 -0.185517,-0.89917 c -0.06615,-0.35057 -0.162264,-0.68895 -0.285772,-1.01234 -0.123507,-0.32339 -0.274195,-0.632 -0.449069,-0.92346 -0.174871,-0.29145 -0.374033,-0.56585 -0.594278,-0.82062 -0.220244,-0.25476 -0.46178,-0.49 -0.721402,-0.70331 -0.259623,-0.21332 -0.537435,-0.40442 -0.83044,-0.57155 -0.293008,-0.16712 -0.600998,-0.31016 -0.921393,-0.42633 -0.320392,-0.11617 -0.652981,-0.20567 -0.99477,-0.26613 -0.341789,-0.0605 -0.692878,-0.092 -1.050066,-0.092 -0.310885,0 -0.621564,0.0234 -0.927076,0.0692 -0.305509,0.0459 -0.605647,0.11421 -0.895035,0.20516 -0.289388,0.0909 -0.568441,0.20433 -0.830956,0.33951 -0.262517,0.13519 -0.50891,0.29218 -0.733806,0.47077 l -0.608232,0.42375 -0.608748,-0.37052 c -0.429948,-0.2712 -0.876535,-0.51118 -1.335836,-0.7183 -0.459301,-0.20712 -0.931106,-0.38137 -1.412317,-0.52193 -0.481211,-0.14056 -0.971415,-0.24733 -1.467093,-0.31885 -0.495681,-0.0715 -0.996942,-0.108 -1.499651,-0.108 z"
         clip-path="none"
         style="opacity:1;fill:#6ee8f1;fill-opacity:1;stroke:none;stroke-width:0.12043688;stroke-linecap:butt;stroke-miterlimit:4;stroke-dasharray:none;stroke-opacity:1" />
      <g
         transform="matrix(0.26458333,0,0,0.26458333,-2.3781479,274.35121)"
         id="g16"
         style="fill:#464c5b;fill-opacity:1">
        <g
           transform="translate(-29.80092,-89.299553)"
           id="g14"
           style="fill:#464c5b;fill-opacity:1">
          <path
             d="m 128.10039,114.79843 c 0,-18.500003 15.3,-33.800003 34,-33.800003 14,0 26.3,8.5 31.5,21.400003 2.5,-4.000003 4,-8.800003 4,-13.700003 0,-13 -9.7,-23.9 -22.5,-25.2 l -3.1,-0.2 -0.7,-3.4 c -2,-10.6 -11.3,-18.2 -22.1,-18.2 -4.7,0 -9.4,1.4 -12.8,4.1 l -2.3,1.6 -2.3,-1.4 c -6.5,-4.1 -14,-6.3 -21.6,-6.3 -20.300004,0 -37.100004,14.8 -37.100004,32.8 0,0.7 0,1.4 0.2,2 l 0.4,2.9 -2.5,1.3 c -5.8,3.2 -9.7,9 -10.4,15.7 -1.1,11.000003 7,20.700003 17.8,22.000003 4.1,0.5 8.3,-0.5 12.1,-2.7 l 2.5,-1.4 2.2,1.8 c 7.900004,6.5 19.100004,10.1 31.000004,10.1 1.1,0 2.2,0 3.2,0 -1.1,-3.4 -1.5,-6.3 -1.5,-9.4 z m 67.7,-2.3 c 0.2,0.7 0.2,1.4 0.2,2.3 0,18.7 -15.1,33.8 -33.8,33.8 -12.1,0 -23.2,-6.5 -29.3,-16.7 -2.2,0.2 -4.5,0.4 -6.7,0.4 -12.8,0 -24.7,-3.6 -34.000004,-10.4 -4.7,2.2 -9.7,3.1 -14.6,2.5 -7.6,-0.7 -14.2,-4.3 -19.1,-10.3 -4.9,-5.9 -7.2,-13.3 -6.5,-20.700003 0.9,-8.6 5.4,-16 12.4,-20.7 v -0.2 c 0,-22.7 20.3,-41 45.400004,-41 8.5,0 16.7,2.2 23.9,6.1 4.7,-2.7 9.9,-4.1 15.5,-4.1 13.7,0 25.7,9 29.5,22.1 15.7,3.1 26.8,16.9 26.8,33.1 0.2,8.7 -3.4,17.500003 -9.7,23.800003 z m -33.8,-23.800003 c -14.4,0 -26.1,11.700003 -26.1,26.100003 0,3.1 0.5,6.1 1.6,8.8 0.7,1.8 1.4,3.4 2.5,5.4 4.9,7.4 13,11.9 22,11.9 14,0 25.4,-11 26.1,-25 v -1.3 c 0,-1.8 -0.2,-3.6 -0.5,-5.4 -2.4,-11.600003 -13.2,-20.500003 -25.6,-20.500003 z"
             id="path2"
             inkscape:connector-curvature="0"
             style="fill:#464c5b;fill-opacity:1" />
          <g
             id="g12"
             transform="matrix(1,0,0,-1,0,232.9)"
             style="fill:#464c5b;fill-opacity:1">
            <g
               id="g10"
               style="fill:#464c5b;fill-opacity:1">
              <g
                 id="g8"
                 style="fill:#464c5b;fill-opacity:1">
                <g
                   id="g6"
                   style="fill:#464c5b;fill-opacity:1">
                  <path
                     d="m 172.1,116.8 c 2.5,-2.5 6.4,1.4 3.9,3.9 -2.9,2.9 -5.8,5.8 -8.8,8.8 -0.8,0.8 -1.5,1.5 -2.2,2.2 -1.1,1.1 -2.8,1.1 -3.9,0 -0.8,-0.8 -1.5,-1.5 -2.2,-2.2 -2.9,-2.9 -5.8,-5.8 -8.8,-8.8 -2.5,-2.5 1.4,-6.4 3.9,-3.9 2.1,2.1 4.2,4.2 6.3,6.3 0,-6.7 0,-13.4 0,-20.1 0,-3.5 5.5,-3.5 5.5,0 0,6.7 0,13.4 0,20.1 2.1,-2.1 4.1,-4.2 6.3,-6.3 z"
                     id="path4"
                     inkscape:connector-curvature="0"
                     style="fill:#464c5b;fill-opacity:1" />
                </g>
              </g>
            </g>
          </g>
        </g>
      </g>
    </g>
    <g
       transform="matrix(0.26280044,0,0,0.26280044,34.285169,251.58153)"
       id="g3209"
       style="fill:#464c5b;fill-opacity:1;fill-rule:evenodd;stroke:none;stroke-width:1">
      <g
         id="g3207"
         style="fill:#464c5b;fill-opacity:1;fill-rule:nonzero">
        <g
           id="g3205"
           style="fill:#464c5b;fill-opacity:1">
          <path
             id="path3203"
             d="M 13,19 V 11.082492 C 13,5.5140852 17.923532,1 24,1 30.075132,1 35,5.5184209 35,11.082492 V 19 h 2.231498 C 39.312784,19 41,20.79412 41,22.996839 V 43.003161 C 41,45.210554 39.313935,47 37.231498,47 H 10.768502 C 8.6872158,47 7,45.20588 7,43.003161 V 22.996839 C 7,20.789446 8.6860653,19 10.768502,19 Z m -2,4 V 43 H 37 V 23 Z M 31,19 V 11.082492 C 31,7.8073024 27.938142,5 24,5 20.059179,5 17,7.8042489 17,11.082492 V 19 Z m -9,11.568834 c 0,-1.104357 0.88773,-1.999615 2,-1.999615 1.104569,0 2,0.887434 2,1.999615 v 6.00077 c 0,1.104357 -0.88773,1.999615 -2,1.999615 -1.10457,0 -2,-0.887433 -2,-1.999615 z"
             inkscape:connector-curvature="0"
             style="fill:#464c5b;fill-opacity:1" />
        </g>
      </g>
    </g>
  </g>
</svg>
