<?xml version="1.0" encoding="utf-8"?>
<!-- Generator: Adobe Illustrator 16.0.0, SVG Export Plug-In . SVG Version: 6.00 Build 0)  -->
<!DOCTYPE svg PUBLIC "-//W3C//DTD SVG 1.1//EN" "http://www.w3.org/Graphics/SVG/1.1/DTD/svg11.dtd">
<svg version="1.1" id="Layer_1" xmlns="http://www.w3.org/2000/svg" xmlns:xlink="http://www.w3.org/1999/xlink" x="0px" y="0px"
	 width="360px" height="360px" viewBox="0 0 360 360" enable-background="new 0 0 360 360" xml:space="preserve">
<g>
	<path fill="#CFD4D2" d="M307.285,52.728C274.711,20.15,229.709,0,180,0C80.589,0,0,80.589,0,180
		c0,49.709,20.15,94.712,52.728,127.285C85.3,339.855,130.297,360,180,360c99.412,0,180-80.589,180-180
		C360,130.298,339.855,85.3,307.285,52.728z"/>
	<path fill="#EEEB6E" d="M58.399,30.22h243.201c12.292,0,22.257,9.965,22.257,22.258v246.267c0,12.293-9.965,22.258-22.257,22.258
		H58.399c-12.292,0-22.257-9.965-22.257-22.258V52.478C36.143,40.185,46.107,30.22,58.399,30.22z"/>
	<circle fill="#CCEBEF" cx="114.888" cy="140.977" r="41.456"/>
	<path fill="#FABA9E" d="M288.795,153.643h-89.641c-6.451,0-11.68-5.229-11.68-11.68l0,0c0-6.45,5.229-11.68,11.68-11.68h89.641
		c6.45,0,11.68,5.229,11.68,11.68l0,0C300.475,148.413,295.245,153.643,288.795,153.643z"/>
	<path fill="#9EDAE0" d="M294.087,273.093H79.82c-3.528,0-6.389-2.859-6.389-6.387v-47.178c0-3.527,2.86-6.387,6.389-6.387h214.267
		c3.527,0,6.388,2.859,6.388,6.387v47.178C300.475,270.233,297.614,273.093,294.087,273.093z"/>
	<path opacity="0.4" fill="#FFFFFF" d="M301.601,30.22c12.292,0,22.257,9.965,22.257,22.258v246.267
		c0,12.293-9.965,22.258-22.257,22.258H58.399c-12.292,0-22.257-9.965-22.257-22.258"/>
	<path fill="#E4E6E4" d="M54.826,29.22h250.348c10.318,0,18.684,8.365,18.684,18.686v16.743H36.143V47.905
		C36.143,37.585,44.508,29.22,54.826,29.22z"/>
	<g>
		<circle fill="#F05051" cx="61.357" cy="50.839" r="4.463"/>
		<circle fill="#FEDD2F" cx="77.895" cy="50.839" r="4.463"/>
		<circle fill="#7ECCBA" cx="94.432" cy="50.839" r="4.462"/>
	</g>
</g>
</svg>
