<?xml version="1.0" encoding="utf-8"?>
<!-- Generator: Adobe Illustrator 16.0.0, SVG Export Plug-In . SVG Version: 6.00 Build 0)  -->
<!DOCTYPE svg PUBLIC "-//W3C//DTD SVG 1.1//EN" "http://www.w3.org/Graphics/SVG/1.1/DTD/svg11.dtd">
<svg version="1.1"
	 id="svg2" xmlns:dc="http://purl.org/dc/elements/1.1/" xmlns:cc="http://creativecommons.org/ns#" xmlns:rdf="http://www.w3.org/1999/02/22-rdf-syntax-ns#" xmlns:svg="http://www.w3.org/2000/svg" xmlns:sodipodi="http://sodipodi.sourceforge.net/DTD/sodipodi-0.dtd" xmlns:inkscape="http://www.inkscape.org/namespaces/inkscape" inkscape:output_extension="org.inkscape.output.svg.inkscape" sodipodi:docname="man silhouette.svg" inkscape:version="0.46+pre4" sodipodi:version="0.32"
	 xmlns="http://www.w3.org/2000/svg" xmlns:xlink="http://www.w3.org/1999/xlink" x="0px" y="0px" width="638.773px"
	 height="813.811px" viewBox="46.429 -26.319 638.773 813.811" enable-background="new 46.429 -26.319 638.773 813.811"
	 xml:space="preserve">
<defs>
	
	
		<inkscape:perspective  id="perspective10" inkscape:vp_z="744.09448 : 526.18109 : 1" inkscape:vp_y="0 : 1000 : 0" inkscape:vp_x="0 : 526.18109 : 1" sodipodi:type="inkscape:persp3d" inkscape:persp3d-origin="372.04724 : 350.78739 : 1">
		</inkscape:perspective>
	
		<inkscape:perspective  id="perspective2390" inkscape:vp_z="744.09448 : 526.18109 : 1" inkscape:vp_y="0 : 1000 : 0" inkscape:vp_x="0 : 526.18109 : 1" sodipodi:type="inkscape:persp3d" inkscape:persp3d-origin="372.04724 : 350.78739 : 1">
		</inkscape:perspective>
</defs>
<sodipodi:namedview  showgrid="false" inkscape:cy="520" inkscape:cx="-23.571429" inkscape:zoom="0.35" objecttolerance="10" guidetolerance="10" gridtolerance="10000" borderopacity="1.0" bordercolor="#666666" pagecolor="#ffffff" id="base" inkscape:window-y="-4" inkscape:window-x="-4" inkscape:window-height="975" inkscape:window-width="1280" inkscape:current-layer="layer1" inkscape:document-units="px" inkscape:pageshadow="2" inkscape:pageopacity="0.0">
	</sodipodi:namedview>
<g id="layer1" inkscape:label="Layer 1" inkscape:groupmode="layer">
	<path id="path2396" fill="#FFFFFF" d="M46.429,778.046c0-10.652,17.739-102.203,20.745-107.066
		c1.071-1.734,3.732-12.961,5.913-24.949c5.087-27.965,14.467-58.014,19.987-64.031c2.374-2.588,23.671-8.738,47.328-13.668
		c72.675-15.146,104.705-26.811,120.519-43.894c7.538-8.143,18.938-16.629,25.333-18.858c10.161-3.542,11.628-5.796,11.628-17.863
		c0-7.596-2.322-17.142-5.159-21.213c-2.837-4.072-6.408-15.003-7.933-24.292c-1.526-9.289-5.96-19.91-9.854-23.603
		c-3.893-3.692-7.079-8.405-7.079-10.473s-3.8-8.898-8.444-15.18c-7.203-9.743-8.513-16.479-8.915-45.823
		c-0.775-56.693,4.084-82.636,19.961-106.555c22.417-33.773,65.708-57.165,105.994-57.272c15.742-0.042,22.357,1.783,28.967,7.993
		c4.992,4.689,16.723,9.337,28.111,11.137c22.66,3.582,43.041,17.972,52.936,37.377c4.975,9.756,6.562,22.121,6.566,51.116
		c0.004,21.443,1.656,39.266,3.76,40.566c10.205,6.308,0.686,49.886-15.324,70.149c-6.021,7.62-10.984,16.908-11.029,20.642
		s-3.424,14.15-7.506,23.148c-13.561,29.885-8.895,59.461,10.426,66.082c3.6,1.233,12.455,9.844,19.68,19.132
		c7.225,9.291,17.359,17.846,22.52,19.012s28.303,9.557,51.428,18.643c23.125,9.088,43.172,16.521,44.549,16.521
		s9.82,4.645,18.762,10.322c15.98,10.145,24.123,23.686,24.123,40.111c0,4.416,3.494,14.719,7.762,22.896
		c6.869,13.158,11.545,38.395,21.006,113.385l2.014,15.951H365.814H46.429V778.046z"/>
</g>
</svg>
